<?xml version="1.0" encoding="utf-8"?>
<svg xmlns="http://www.w3.org/2000/svg" style="margin: auto; background: none; display: block; shape-rendering: auto;" width="173" height="59" preserveAspectRatio="xMidYMid">
<style type="text/css">
  text {
    text-anchor: middle; font-size: 28px; opacity: 0;
  }
</style>
<g style="transform-origin:86.5px 29.5px;transform:scale(1)">
<g transform="translate(86.5,29.5)">
  <g transform="translate(0,0)">
  <g class="path" style="transform: rotate(0deg); transform-origin: -64.09px -2.14427px; animation: 1s linear -0.595556s infinite normal forwards running spin-969771d3-5b91-4dcb-91fe-2114a1212646;">
  <path d="m 20.574542,42.956305 q 3.394662,0 5.117326,1.013332 1.747998,0.987999 1.747998,3.470662 0,1.595998 -0.886665,2.659997 -0.886666,1.038665 -2.558664,1.342665 v 0.126666 q 1.139999,0.177333 2.051998,0.658666 0.937332,0.481333 1.469331,1.367998 0.531999,0.886666 0.531999,2.30533 0,2.457331 -1.697331,3.799995 -1.671998,1.342665 -4.585327,1.342665 H 15.406549 V 42.956305 Z m 0.455999,7.701323 q 2.330664,0 3.191996,-0.734665 0.861332,-0.759999 0.861332,-2.229331 0,-1.494664 -1.063998,-2.127997 -1.038666,-0.658666 -3.343996,-0.658666 h -2.989329 v 5.750659 z m -3.343995,1.899998 v 6.561325 h 3.647995 q 2.406663,0 3.343995,-0.937333 0.937333,-0.937332 0.937333,-2.45733 0,-1.418664 -0.987999,-2.279997 -0.962666,-0.886665 -3.470662,-0.886665 z"
   fill="#c0c0c0" stroke="none" stroke-width="none" transform="translate(-74.7449951171875,7.6557336425781255)" style="fill:#ffb380;"></path></g><g class="path" style="transform: rotate(0deg); transform-origin: -43.565px -2.14427px; animation: 1s linear -0.521111s infinite normal forwards running spin-969771d3-5b91-4dcb-91fe-2114a1212646;"><path d="m 42.033928,44.147712 q 3.369328,0 4.965326,1.291998 1.621331,1.266665 1.621331,3.850661 0,1.443998 -0.531999,2.406664 -0.531999,0.962665 -1.367998,1.545331 -0.810666,0.557333 -1.722664,0.886666 l 4.965326,8.106656 h -2.659996 l -4.382661,-7.473324 h -3.597328 v 7.473324 H 37.043268 V 44.147712 Z m -0.126667,1.975997 h -2.583996 v 6.713324 h 2.710663 q 2.203997,0 3.217329,-0.861332 1.013332,-0.886665 1.013332,-2.583996 0,-1.773331 -1.063999,-2.507997 -1.063999,-0.759999 -3.293329,-0.759999 z"
   fill="#c0c0c0" stroke="none" stroke-width="none" transform="translate(-74.7449951171875,7.6557336425781255)" style="fill:#b3b3b3;"></path></g><g class="path" style="transform: rotate(0deg); transform-origin: -24.345px -2.00427px; animation: 1s linear -0.446667s infinite normal forwards running spin-969771d3-5b91-4dcb-91fe-2114a1212646;"><path d="m 68.32618,63.768891 -2.178664,-5.59866 h -7.169324 l -2.15333,5.59866 h -2.305331 l 7.067991,-18.163976 h 2.051997 l 7.042657,18.163976 z M 63.436853,50.671575 q -0.076,-0.202667 -0.253333,-0.734666 -0.177333,-0.531999 -0.354666,-1.089332 -0.152,-0.582666 -0.253333,-0.886665 -0.177334,0.785332 -0.405333,1.545331 -0.228,0.734666 -0.38,1.165332 l -2.051997,5.471992 h 5.725326 z" 
   fill="#c0c0c0" stroke="none" stroke-width="none" transform="translate(-74.7449951171875,7.6557336425781255)" style="fill:#ffb380;"></path></g><g class="path" style="transform: rotate(0deg); transform-origin: -5.45999px -2.01427px; animation: 1s linear -0.372222s infinite normal forwards running spin-969771d3-5b91-4dcb-91fe-2114a1212646;"><path d="m 76.962739,63.429047 h -2.22933 V 44.175739 h 2.22933 z" 
   fill="#c0c0c0" stroke="none" stroke-width="none" transform="translate(-74.7449951171875,7.6557336425781255)" style="fill:#b3b3b3;"></path></g><g class="path" style="transform: rotate(0deg); transform-origin: 11.185px -2.00427px; animation: 1s linear -0.297778s infinite normal forwards running spin-969771d3-5b91-4dcb-91fe-2114a1212646;"><path d="m 107.4366,66.495453 h -2.65999 L 95.099286,51.472806 h -0.101333 q 0.05067,0.886666 0.126666,2.203998 0.076,1.317331 0.076,2.710663 V 66.495453 H 93.097955 V 48.407477 h 2.634663 l 9.651992,14.97198 h 0.10133 q -0.0253,-0.405332 -0.076,-1.215998 -0.0253,-0.810666 -0.076,-1.773331 -0.0253,-0.962665 -0.0253,-1.773331 v -10.20932 h 2.12799 z"
   fill="#c0c0c0" stroke="none" stroke-width="none" transform="translate(-74.7449951171875,7.6557336425781255)" style="fill:#b3b3b3;"></path></g><g class="path" style="transform: rotate(0deg); transform-origin: 28.21px -2.14427px; animation: 1s linear -0.223333s infinite normal forwards running spin-969771d3-5b91-4dcb-91fe-2114a1212646;"><path d="M96.12-1.65L97.47-3.89L97.47-3.89Q98.48-3.05 99.74-2.52L99.74-2.52L99.74-2.52Q101.00-1.99 102.68-1.99L102.68-1.99L102.68-1.99Q104.69-1.99 105.87-2.83L105.87-2.83L105.87-2.83Q107.04-3.67 107.04-5.10L107.04-5.10L107.04-5.10Q107.04-5.68 106.88-6.19L106.88-6.19L106.88-6.19Q106.71-6.69 106.22-7.15L106.22-7.15L106.22-7.15Q105.73-7.62 104.85-8.08L104.85-8.08L104.85-8.08Q103.96-8.54 102.56-9.07L102.56-9.07L102.56-9.07Q101.05-9.66 100.00-10.23L100.00-10.23L100.00-10.23Q98.95-10.81 98.31-11.49L98.31-11.49L98.31-11.49Q97.66-12.18 97.38-13.01L97.38-13.01L97.38-13.01Q97.10-13.83 97.10-14.90L97.10-14.90L97.10-14.90Q97.10-15.93 97.54-16.86L97.54-16.86L97.54-16.86Q97.97-17.78 98.83-18.47L98.83-18.47L98.83-18.47Q99.68-19.15 100.93-19.54L100.93-19.54L100.93-19.54Q102.17-19.94 103.77-19.94L103.77-19.94L103.77-19.94Q105.50-19.94 106.88-19.59L106.88-19.59L106.88-19.59Q108.25-19.24 109.59-18.59L109.59-18.59L108.61-16.32L108.61-16.32Q107.66-16.88 106.39-17.26L106.39-17.26L106.39-17.26Q105.11-17.64 103.71-17.64L103.71-17.64L103.71-17.64Q101.86-17.64 100.80-16.93L100.80-16.93L100.80-16.93Q99.74-16.21 99.74-15.04L99.74-15.04L99.74-15.04Q99.74-14.48 99.89-14.04L99.89-14.04L99.89-14.04Q100.04-13.61 100.51-13.20L100.51-13.20L100.51-13.20Q100.97-12.80 101.79-12.38L101.79-12.38L101.79-12.38Q102.62-11.96 103.99-11.45L103.99-11.45L103.99-11.45Q105.62-10.84 106.74-10.19L106.74-10.19L106.74-10.19Q107.86-9.55 108.53-8.82L108.53-8.82L108.53-8.82Q109.20-8.09 109.49-7.25L109.49-7.25L109.49-7.25Q109.79-6.41 109.79-5.40L109.79-5.40L109.79-5.40Q109.79-4.03 109.26-2.97L109.26-2.97L109.26-2.97Q108.72-1.90 107.79-1.16L107.79-1.16L107.79-1.16Q106.85-0.42 105.53-0.04L105.53-0.04L105.53-0.04Q104.22 0.34 102.68 0.34L102.68 0.34L102.68 0.34Q100.63 0.34 98.95-0.21L98.95-0.21L98.95-0.21Q97.27-0.76 96.12-1.65L96.12-1.65" 
   fill="#c0c0c0" stroke="none" stroke-width="none" transform="translate(-74.7449951171875,7.6557336425781255)" style="fill: rgb(29, 21, 10);"></path></g><g class="path" style="transform: rotate(0deg); transform-origin: 40.295px -2.14427px; animation: 1s linear -0.148889s infinite normal forwards running spin-969771d3-5b91-4dcb-91fe-2114a1212646;"><path d="m 127.52909,47.575203 h 6.25733 v 8.866655 q -1.46934,0.481333 -2.964,0.709332 -1.49466,0.228 -3.39466,0.228 -2.812,0 -4.73733,-1.114665 -1.92533,-1.139999 -2.93866,-3.217329 -0.988,-2.102664 -0.988,-4.965327 0,-2.837329 1.11466,-4.91466 1.11467,-2.077331 3.192,-3.217329 2.10266,-1.165332 5.06666,-1.165332 1.52,0 2.86266,0.278666 1.368,0.278667 2.53333,0.785333 l -0.86133,1.975997 q -0.96266,-0.430666 -2.17866,-0.734666 -1.19067,-0.303999 -2.48267,-0.303999 -3.24266,0 -5.06666,1.950664 -1.79866,1.950664 -1.79866,5.345326 0,2.153331 0.684,3.825328 0.70933,1.646665 2.204,2.583997 1.49466,0.911999 3.92666,0.911999 1.19066,0 2.02666,-0.126667 0.836,-0.126666 1.52,-0.303999 v -5.37066 h -3.97733 z" 
   fill="#c0c0c0" stroke="none" stroke-width="none" transform="translate(-74.7449951171875,7.6557336425781255)" style="fill:#ffb380;"></path></g><g class="path" style="transform: rotate(0deg); transform-origin: 51.775px -2.14427px; animation: 1s linear -0.0744444s infinite normal forwards running spin-969771d3-5b91-4dcb-91fe-2114a1212646;"><path d="m 144.32093,47.759076 4.712,-8.891988 h 2.45733 l -6.02933,11.070652 v 7.017324 h -2.27999 v -6.915991 l -6.02933,-11.171985 h 2.48266 z" 
   fill="#c0c0c0" stroke="none" stroke-width="none" transform="translate(-74.7449951171875,7.6557336425781255)" style="fill:#b3b3b3;"></path></g><g class="path" style="transform: rotate(0deg); transform-origin: 67.075px -2.00427px; animation: 1s linear 0s infinite normal forwards running spin-969771d3-5b91-4dcb-91fe-2114a1212646;"><path d="m 162.38319,56.863194 -5.95333,-15.858645 h -0.10133 q 0.076,0.785332 0.12667,2.127997 0.0507,1.317331 0.0507,2.761329 v 10.969319 h -2.10266 V 38.775218 h 3.36933 l 5.57332,14.819981 h 0.10134 l 5.67466,-14.819981 h 3.34399 v 18.087976 h -2.25466 V 45.741876 q 0,-1.317332 0.0507,-2.60933 0.076,-1.291999 0.12666,-2.102664 h -0.10133 l -6.02933,15.833312 z" 
   fill="#c0c0c0" stroke="none" stroke-width="none" transform="translate(-74.7449951171875,7.6557336425781255)" style="fill:#ffb380;"></path></g></g>
</g>
</g>
<style id="spin-969771d3-5b91-4dcb-91fe-2114a1212646" data-anikit="">@keyframes spin-969771d3-5b91-4dcb-91fe-2114a1212646
{
  0% {
    animation-timing-function: cubic-bezier(0.5856,0.0703,0.4143,0.9297);
    transform: rotate(0deg);
  }
  100% {
    transform: rotate(360deg);
  }
}</style></svg>